# xmcd CD database file
#
# Track frame offsets:
#	150
#	12308
#	25168
#	47943
#	63857
#	85852
#	99000
#	109355
#	139297
#	156390
#
# Disc length: 2286 seconds
#
# Revision: 1
# Processed by: cddbd v1.5.2PL0 Copyright (c) Steve Scherf et al.
# Submitted via: CDex 1.51
#
DISCID=7e08ec0a
DTITLE=Diverse - The Roots Of AC-DC
DYEAR=2009
DGENRE=Blues
TTITLE0=Chuck Berry - School Days
TTITLE1=Elmore James - Dust My Broom
TTITLE2=B.B. King - The Thrill Is Gone
TTITLE3=Albert King - Born Under A Bad Sign
TTITLE4=Freddy King - Hideaway
TTITLE5=Ike and Tina Turner - (Am I) A Fool In Love
TTITLE6=Carl Perkins - Blue Suede Shoes 
TTITLE7=Ike and Tina Turner - The Hunter
TTITLE8=Muddy Waters - Hoochie Coochie Man
TTITLE9=Big Joe Williams - Baby Please Don´t Go
EXTD=YEAR: 2009
EXTT0=
EXTT1=
EXTT2=
EXTT3=
EXTT4=
EXTT5=
EXTT6=
EXTT7=
EXTT8=
EXTT9=
PLAYORDER=
